HIERARCHY
ROOT Hips
{
	OFFSET 0.00000 0.00000 0.00000
	CHANNELS 6 Xposition Yposition Zposition Zrotation Yrotation Xrotation 
	JOINT LHipJoint
	{
		OFFSET 0 0 0
		CHANNELS 3 Zrotation Yrotation Xrotation
		JOINT LeftHip
		{
			OFFSET 1.52977 -1.71332 0.88991
			CHANNELS 3 Zrotation Yrotation Xrotation
			JOINT LeftKnee
			{
				OFFSET 2.23949 -6.15296 0.00000
				CHANNELS 3 Zrotation Yrotation Xrotation
				JOINT LeftAnkle
				{
					OFFSET 2.68396 -7.37412 0.00000
					CHANNELS 3 Zrotation Yrotation Xrotation
					JOINT LeftToe
					{
						OFFSET 0.20538 -0.56428 2.52710
						CHANNELS 3 Zrotation Yrotation Xrotation
						End Site
						{
							OFFSET 0.00000 -0.00000 1.29919
						}
					}
				}
			}
		}
	}
	JOINT RHipJoint
	{
		OFFSET 0 0 0
		CHANNELS 3 Zrotation Yrotation Xrotation
		JOINT RightHip
		{
			OFFSET -1.45689 -1.71333 0.88991
			CHANNELS 3 Zrotation Yrotation Xrotation
			JOINT RightKnee
			{
				OFFSET -2.36700 -6.50329 0.00000
				CHANNELS 3 Zrotation Yrotation Xrotation
				JOINT RightAnkle
				{
					OFFSET -2.69814 -7.41308 0.00000
					CHANNELS 3 Zrotation Yrotation Xrotation
					JOINT RightToe
					{
						OFFSET -0.18734 -0.51471 2.37479
						CHANNELS 3 Zrotation Yrotation Xrotation
						End Site
						{
							OFFSET -0.00000 -0.00000 1.22113
						}
					}
				}
			}
		}
	}
	JOINT lowerback
	{
		OFFSET 0 0 0
		CHANNELS 3 Zrotation Yrotation Xrotation
		JOINT Chest
		{
			OFFSET 0.04294 2.14638 -0.31163
			CHANNELS 3 Zrotation Yrotation Xrotation
			JOINT Chest2
			{
				OFFSET -0.00400 2.17216 0.01486
				CHANNELS 3 Zrotation Yrotation Xrotation
				JOINT lowerneck
				{
					OFFSET 0 0 0
					CHANNELS 3 Zrotation Yrotation Xrotation
					JOINT Neck
					{
						OFFSET 0.03869 1.76598 0.14916
						CHANNELS 3 Zrotation Yrotation Xrotation
						JOINT Head
						{
							OFFSET -0.00760 1.75513 -0.18948
							CHANNELS 3 Zrotation Yrotation Xrotation
							End Site
							{
								OFFSET -0.00601 1.82444 -0.08310
							}
						}
					}
				}
				JOINT LeftCollar
				{
					OFFSET 0 0 0
					CHANNELS 3 Zrotation Yrotation Xrotation
					JOINT LeftShoulder
					{
						OFFSET 3.73696 0.92058 0.01733
CHANNELS 3 Zrotation Xrotation Yrotation
						JOINT LeftElbow
						{
OFFSET 0 -5.227710 0.000000
CHANNELS 3 Zrotation Xrotation Yrotation
							JOINT LeftWrist
							{
OFFSET 0 -3.452510 0.000000
CHANNELS 3 Zrotation Xrotation Yrotation
								JOINT lhand
								{
									OFFSET 0 0 0
CHANNELS 3 Zrotation Xrotation Yrotation
									JOINT LFingers
									{
OFFSET 0 -0.552120 0.000000
CHANNELS 3 Zrotation Xrotation Yrotation
										End Site
										{
OFFSET 0 -0.445130 0.000000
										}
									}
								}
								JOINT LThumb
								{
OFFSET 0 0.000000 0.000000
CHANNELS 3 Zrotation Xrotation Yrotation
									End Site
									{
OFFSET 0 -0.451930 0.451930
									}
								}
							}
						}
					}
				}
				JOINT RightCollar
				{
					OFFSET 0 0 0
					CHANNELS 3 Zrotation Yrotation Xrotation
					JOINT RightShoulder
					{
						OFFSET -3.63819 0.83094 -0.13694
CHANNELS 3 Zrotation Xrotation Yrotation
						JOINT RightElbow
						{
OFFSET 0 -5.239800 -0.000000
CHANNELS 3 Zrotation Xrotation Yrotation
							JOINT RightWrist
							{
OFFSET 0 -3.480420 -0.000000
CHANNELS 3 Zrotation Xrotation Yrotation
								JOINT rhand
								{
									OFFSET 0 0 0
CHANNELS 3 Zrotation Xrotation Yrotation
									JOINT RFingers
									{
OFFSET 0 -0.618710 0.000000
CHANNELS 3 Zrotation Xrotation Yrotation
										End Site
										{
OFFSET 0 -0.498820 0.000000
										}
									}
								}
								JOINT RThumb
								{
OFFSET 0 0.000000 0.000000
CHANNELS 3 Zrotation Xrotation Yrotation
									End Site
									{
OFFSET 0 -0.506440 0.506440
									}
								}
							}
						}
					}
				}
			}
		}
	}
}
MOTION
Frames: 11
Frame Time: 0.008333333333333333
0.763127 16.943983 17.976011 5.113590 -149.803569 -1.183605 0.000000 0.000000 0.000000 -16.583362 1.630820 -3.582010 1.444311 7.597368 21.497703 1.268429 1.775102 -21.985312 0.001119 0.211580 0.581325 0.000000 0.000000 0.000000 28.924736 13.507599 -6.357818 -3.241727 -11.076471 32.538118 -1.829232 -6.407720 -28.520245 -0.114686 -2.183733 6.013648 2.958077 -1.189264 1.200974 0.214817 -1.559468 0.453311 -1.413721 -0.782301 -0.281210 -1.381235 -2.807109 1.641149 6.195835 -4.065751 3.205295 2.163962 -2.065945 0.888507 0.000000 0.000000 0.000000 -1.475597 0.962504 20.179960 4.490823 -7.723163 0.303312 23.969275 21.907968 -12.954444 0.000000 0.000000 0.000000 -7.125000 0.000000 0.000000 -3.082853 44.088130 -0.069432 0.000000 0.000000 0.000000 3.291869 3.005945 11.552516 -7.836631 -13.287674 -0.914195 -17.847743 23.695832 4.906504 0.000000 0.000000 0.000000 7.125000 0.000000 0.000000 7.320498 35.057196 1.799727
0.752451 16.939213 17.962420 5.072242 -149.661354 -1.155766 0.000000 0.000000 0.000000 -16.632465 1.608481 -3.445279 1.429386 7.559791 21.384855 1.287629 1.635186 -22.086354 0.001909 0.279613 0.768144 0.000000 0.000000 0.000000 28.871078 13.342738 -6.336815 -3.240824 -11.075046 32.533450 -1.858046 -6.374499 -28.692478 -0.111153 -2.149326 5.918381 2.989698 -1.194088 1.264415 0.207050 -1.564059 0.479118 -1.438293 -0.784635 -0.291515 -1.371513 -2.846323 1.581027 6.165330 -4.117200 3.227610 2.150882 -2.089810 0.906988 0.000000 0.000000 0.000000 -1.475687 0.882268 19.067249 4.543464 -7.812433 0.310424 23.858537 20.962594 -13.034341 0.000000 0.000000 0.000000 -7.125000 0.000000 0.000000 -3.196559 44.161310 -0.066232 0.000000 0.000000 0.000000 3.298655 2.964446 11.656067 -7.805016 -13.236320 -0.906958 -17.801740 23.553235 4.969692 0.000000 0.000000 0.000000 7.125000 0.000000 0.000000 7.365872 35.120858 1.799547
0.740754 16.934275 17.947023 5.058264 -149.585750 -1.068474 0.000000 0.000000 0.000000 -16.634141 1.709380 -3.444569 1.417992 7.530957 21.298223 1.306671 1.447469 -22.166142 0.002002 0.288996 0.793953 0.000000 0.000000 0.000000 28.843383 13.299817 -6.383280 -3.249092 -11.087762 32.576603 -1.893795 -6.345557 -28.911497 -0.109866 -2.137412 5.885647 3.027577 -1.189030 1.080774 0.201146 -1.566991 0.607234 -1.471383 -0.781866 -0.058622 -1.338492 -2.889339 1.453238 6.137219 -4.169716 3.205727 2.133490 -2.112720 0.922587 0.000000 0.000000 0.000000 -1.444575 0.615770 18.005516 4.583875 -7.880956 0.315876 23.800664 19.854261 -13.099716 0.000000 0.000000 0.000000 -7.125000 0.000000 0.000000 -3.259517 44.225013 -0.062413 0.000000 0.000000 0.000000 3.311005 2.725868 11.607079 -7.741431 -13.132858 -0.892463 -17.635780 23.773683 4.989674 0.000000 0.000000 0.000000 7.125000 0.000000 0.000000 7.505030 35.133915 1.831607
0.728122 16.928311 17.930129 5.015634 -149.532765 -0.939539 0.000000 0.000000 0.000000 -16.673305 1.827197 -3.483168 1.408649 7.506952 21.226256 1.321101 1.351369 -22.246064 0.001058 0.211919 0.582112 0.000000 0.000000 0.000000 28.810386 13.391865 -6.436676 -3.266132 -11.113826 32.664812 -1.928238 -6.439864 -29.189656 -0.104065 -2.079919 5.726699 3.019906 -1.189720 0.927562 0.186183 -1.575297 0.679718 -1.486901 -0.783024 0.100949 -1.233267 -2.904723 1.415097 6.068758 -4.185396 3.189627 2.091719 -2.118838 0.920288 0.000000 0.000000 0.000000 -1.381387 0.449612 16.987404 4.621018 -7.943943 0.321070 23.821502 18.772610 -13.112704 0.000000 0.000000 0.000000 -7.125000 0.000000 0.000000 -3.242471 44.241454 -0.060746 0.000000 0.000000 0.000000 3.340337 2.585411 11.531312 -7.695078 -13.057380 -0.881957 -17.455464 24.073215 4.998858 0.000000 0.000000 0.000000 7.125000 0.000000 0.000000 7.654760 35.135015 1.868499
0.713521 16.920618 17.912468 4.960381 -149.454220 -0.818857 0.000000 0.000000 0.000000 -16.739365 1.894270 -3.489406 1.401279 7.488134 21.169803 1.336012 1.303395 -22.348796 0.000428 0.137451 0.377676 0.000000 0.000000 0.000000 28.787927 13.563073 -6.442088 -3.286235 -11.144573 32.769041 -1.962127 -6.639049 -29.521906 -0.094410 -1.981781 5.455342 2.981822 -1.226035 0.970318 0.183886 -1.620681 0.625905 -1.465577 -0.807319 0.020509 -1.125686 -2.876295 1.467349 5.971592 -4.149230 3.264842 2.041613 -2.100643 0.928319 0.000000 0.000000 0.000000 -1.333177 0.496120 16.043607 4.654230 -8.000082 0.325633 23.755781 17.840155 -13.119651 0.000000 0.000000 0.000000 -7.125000 0.000000 0.000000 -3.303753 44.241235 -0.061924 0.000000 0.000000 0.000000 3.343084 2.681000 11.558570 -7.683828 -13.039056 -0.879400 -17.350731 24.113013 4.929409 0.000000 0.000000 0.000000 7.125000 0.000000 0.000000 7.732596 35.058139 1.902327
0.696294 16.911831 17.893656 4.953257 -149.350927 -0.737618 0.000000 0.000000 0.000000 -16.756844 1.907601 -3.486828 1.402593 7.491533 21.180034 1.362698 1.137938 -22.501050 0.001206 0.220875 0.606907 0.000000 0.000000 0.000000 28.794332 13.643531 -6.427610 -3.297858 -11.162269 32.829157 -1.995531 -6.800052 -29.827843 -0.084295 -1.872824 5.154300 2.980512 -1.283389 1.114213 0.204478 -1.689634 0.527383 -1.437911 -0.845112 -0.163678 -1.082102 -2.837375 1.522642 5.918818 -4.103426 3.369122 2.017363 -2.078064 0.947412 0.000000 0.000000 0.000000 -1.328265 0.611756 15.132079 4.686495 -8.054751 0.330185 23.519207 16.969906 -13.196263 0.000000 0.000000 0.000000 -7.125000 0.000000 0.000000 -3.532768 44.295472 -0.061527 0.000000 0.000000 0.000000 3.320850 2.864743 11.626517 -7.685306 -13.041476 -0.879768 -17.306101 23.898800 4.691435 0.000000 0.000000 0.000000 7.125000 0.000000 0.000000 7.740700 34.809443 1.951637
0.675482 16.902077 17.872818 5.051846 -149.264492 -0.696475 0.000000 0.000000 0.000000 -16.667821 1.920366 -3.533381 1.415889 7.525593 21.282079 1.400085 0.871472 -22.699585 0.003293 0.372095 1.022294 0.000000 0.000000 0.000000 28.865475 13.590060 -6.433799 -3.297713 -11.162013 32.828145 -2.024205 -6.877342 -30.053675 -0.074885 -1.764816 4.856237 3.086441 -1.327697 1.192278 0.246409 -1.744063 0.477507 -1.450513 -0.874396 -0.262936 -1.070200 -2.822571 1.529511 5.906192 -4.085706 3.401744 2.011228 -2.069142 0.955206 0.000000 0.000000 0.000000 -1.315325 0.648495 14.198817 4.721520 -8.114053 0.335072 23.282936 16.029195 -13.314052 0.000000 0.000000 0.000000 -7.125000 0.000000 0.000000 -3.768573 44.394015 -0.056470 0.000000 0.000000 0.000000 3.298316 2.969332 11.649679 -7.677619 -13.029010 -0.877992 -17.209273 23.677837 4.312600 0.000000 0.000000 0.000000 7.125000 0.000000 0.000000 7.775518 34.412661 2.036099
0.649491 16.891010 17.848998 5.215867 -149.236935 -0.672829 0.000000 0.000000 0.000000 -16.527763 1.918702 -3.584141 1.435940 7.576342 21.434521 1.445570 0.599183 -22.960115 0.007075 0.541216 1.487223 0.000000 0.000000 0.000000 28.991218 13.520411 -6.423219 -3.290498 -11.151096 32.791095 -2.042367 -7.026745 -30.254281 -0.061840 -1.603010 4.409719 3.267835 -1.350371 1.168538 0.304305 -1.774733 0.493030 -1.493000 -0.889676 -0.238729 -1.055388 -2.820953 1.494319 5.882826 -4.076790 3.339224 2.000827 -2.063931 0.940259 0.000000 0.000000 0.000000 -1.302260 0.597293 13.263738 4.764075 -8.185998 0.341109 23.143182 15.043862 -13.469618 0.000000 0.000000 0.000000 -7.125000 0.000000 0.000000 -3.922610 44.544120 -0.044176 0.000000 0.000000 0.000000 3.248961 2.969565 11.725213 -7.659980 -13.000209 -0.874065 -17.077583 23.611915 4.092166 0.000000 0.000000 0.000000 7.125000 0.000000 0.000000 7.857613 34.178930 2.102861
0.618934 16.879157 17.821384 5.319967 -149.261810 -0.611528 0.000000 0.000000 0.000000 -16.458711 1.898604 -3.570045 1.449966 7.611758 21.540948 1.497847 0.334470 -23.275100 0.014321 0.771030 2.118956 0.000000 0.000000 0.000000 29.079242 13.537937 -6.377015 -3.288177 -11.147595 32.779216 -2.054447 -7.347838 -30.516145 -0.043389 -1.344775 3.697976 3.394694 -1.357773 1.129075 0.353291 -1.786463 0.514770 -1.514862 -0.895045 -0.197115 -1.000430 -2.814979 1.445738 5.818723 -4.058446 3.257889 1.970000 -2.053512 0.919309 0.000000 0.000000 0.000000 -1.313406 0.554188 12.337797 4.809536 -8.262838 0.347644 23.135060 14.137858 -13.580550 0.000000 0.000000 0.000000 -7.125000 0.000000 0.000000 -3.948782 44.662067 -0.032989 0.000000 0.000000 0.000000 3.193169 2.936126 11.745031 -7.631412 -12.953672 -0.867652 -17.010147 23.751539 4.126480 0.000000 0.000000 0.000000 7.125000 0.000000 0.000000 7.916578 34.211789 2.112590
0.584841 16.868991 17.787963 5.346355 -149.309917 -0.482759 0.000000 0.000000 0.000000 -16.469885 1.922902 -3.508477 1.449146 7.609578 21.534509 1.547513 0.130217 -23.587081 0.021440 0.944740 2.596736 0.000000 0.000000 0.000000 29.088217 13.677352 -6.300810 -3.301022 -11.167035 32.845397 -2.148310 -7.203364 -31.011479 -0.051403 -1.461539 4.019749 3.433897 -1.351906 1.112932 0.391952 -1.778489 0.487890 -1.497321 -0.891850 -0.215112 -0.946511 -2.805671 1.406850 5.746502 -4.039460 3.227418 1.936756 -2.042764 0.912466 0.000000 0.000000 0.000000 -1.333845 0.569466 11.397891 4.838768 -8.312222 0.351781 23.166364 13.308335 -13.658248 0.000000 0.000000 0.000000 -7.125000 0.000000 0.000000 -3.933025 44.749261 -0.024365 0.000000 0.000000 0.000000 3.155461 2.928942 11.560370 -7.585472 -12.878703 -0.857399 -17.012975 23.991634 4.187132 0.000000 0.000000 0.000000 7.125000 0.000000 0.000000 7.921254 34.274584 2.101641
0.545748 16.859055 17.747886 5.345280 -149.346853 -0.311618 0.000000 0.000000 0.000000 -16.518353 1.972181 -3.435177 1.441429 7.590143 21.475993 1.591307 0.018621 -23.881391 0.023835 0.996776 2.739929 0.000000 0.000000 0.000000 29.053391 13.794742 -6.239075 -3.320116 -11.196006 32.943897 -2.278165 -6.722226 -31.527523 -0.072627 -1.738346 4.783085 3.453064 -1.338773 1.089240 0.421410 -1.760134 0.424169 -1.477782 -0.884110 -0.265911 -0.954066 -2.813763 1.395357 5.723589 -4.048760 3.228562 1.930402 -2.046965 0.914685 0.000000 0.000000 0.000000 -1.373847 0.603752 10.427752 4.839059 -8.312699 0.351842 23.254728 12.529070 -13.747131 0.000000 0.000000 0.000000 -7.125000 0.000000 0.000000 -3.866705 44.855464 -0.013821 0.000000 0.000000 0.000000 3.138806 2.948982 11.168820 -7.521269 -12.773882 -0.843108 -16.995349 24.275731 4.210783 0.000000 0.000000 0.000000 7.125000 0.000000 0.000000 7.938451 34.298414 2.101673
